<svg width="1600" height="900" viewBox="0 0 1600 900" fill="none" xmlns="http://www.w3.org/2000/svg">
  <rect width="1600" height="900" fill="#F3ECE2"/>
  <rect x="0" y="0" width="290" height="900" fill="#23395B"/>
  <rect x="28" y="34" width="66" height="66" rx="20" fill="#F7C873"/>
  <text x="49" y="76" fill="#1C1C1C" font-size="28" font-family="Segoe UI" font-weight="700">FDS</text>
  <text x="115" y="63" fill="white" font-size="30" font-family="Segoe UI" font-weight="700">Fraud Detection</text>
  <text x="115" y="96" fill="#D7DFEA" font-size="18" font-family="Segoe UI">Operations Console</text>
  <rect x="28" y="686" width="234" height="150" rx="26" fill="rgba(255,255,255,0.10)" stroke="rgba(255,255,255,0.14)"/>
  <text x="48" y="722" fill="#D7DFEA" font-size="16" font-family="Segoe UI">LEAD ANALYST</text>
  <text x="48" y="760" fill="white" font-size="28" font-family="Segoe UI" font-weight="700">Manvi Shukla</text>
  <text x="48" y="796" fill="#D7DFEA" font-size="18" font-family="Segoe UI">Fraud Monitoring Dashboard</text>
  <rect x="320" y="30" width="1250" height="190" rx="28" fill="#FFFDF8" stroke="#E7DDCF"/>
  <text x="356" y="78" fill="#667085" font-size="18" font-family="Segoe UI">MACHINE LEARNING MONITORING</text>
  <text x="356" y="132" fill="#1E2430" font-size="40" font-family="Segoe UI" font-weight="700">Fraud Risk Intelligence Dashboard</text>
  <text x="356" y="174" fill="#667085" font-size="20" font-family="Segoe UI">Review model signals, suspicious behavior, and live prediction results.</text>
  <rect x="320" y="246" width="285" height="148" rx="24" fill="#FFFDF8" stroke="#E7DDCF"/>
  <text x="346" y="280" fill="#667085" font-size="16" font-family="Segoe UI">TRANSACTIONS</text>
  <text x="346" y="336" fill="#23395B" font-size="44" font-family="Segoe UI" font-weight="700">10,482</text>
  <rect x="626" y="246" width="285" height="148" rx="24" fill="#FFFDF8" stroke="#E7DDCF"/>
  <text x="652" y="280" fill="#667085" font-size="16" font-family="Segoe UI">MODEL ACCURACY</text>
  <text x="652" y="336" fill="#23395B" font-size="44" font-family="Segoe UI" font-weight="700">94.0%</text>
  <rect x="932" y="246" width="285" height="148" rx="24" fill="#FFFDF8" stroke="#E7DDCF"/>
  <text x="958" y="280" fill="#667085" font-size="16" font-family="Segoe UI">HIGH RISK ALERTS</text>
  <text x="958" y="336" fill="#23395B" font-size="44" font-family="Segoe UI" font-weight="700">128</text>
  <rect x="1238" y="246" width="285" height="148" rx="24" fill="#FFFDF8" stroke="#E7DDCF"/>
  <text x="1264" y="280" fill="#667085" font-size="16" font-family="Segoe UI">FRAUD RATE</text>
  <text x="1264" y="336" fill="#23395B" font-size="44" font-family="Segoe UI" font-weight="700">0.13%</text>
  <rect x="320" y="420" width="790" height="420" rx="24" fill="#FFFDF8" stroke="#E7DDCF"/>
  <text x="350" y="464" fill="#1E2430" font-size="28" font-family="Segoe UI" font-weight="700">Prediction Workspace</text>
  <text x="350" y="500" fill="#667085" font-size="18" font-family="Segoe UI">Live transaction scoring with ML-style fraud indicators</text>
  <rect x="350" y="540" width="330" height="48" rx="14" fill="#FFFAF3" stroke="#F1E5D6"/>
  <text x="368" y="571" fill="#667085" font-size="18" font-family="Segoe UI">Amount: 55000</text>
  <rect x="700" y="540" width="330" height="48" rx="14" fill="#FFFAF3" stroke="#F1E5D6"/>
  <text x="718" y="571" fill="#667085" font-size="18" font-family="Segoe UI">Merchant Category: crypto</text>
  <rect x="350" y="606" width="330" height="48" rx="14" fill="#FFFAF3" stroke="#F1E5D6"/>
  <text x="368" y="637" fill="#667085" font-size="18" font-family="Segoe UI">Country: US</text>
  <rect x="700" y="606" width="330" height="48" rx="14" fill="#FFFAF3" stroke="#F1E5D6"/>
  <text x="718" y="637" fill="#667085" font-size="18" font-family="Segoe UI">Device ID: DEVICE-X9</text>
  <rect x="350" y="692" width="680" height="56" rx="16" fill="#23395B"/>
  <text x="575" y="728" fill="white" font-size="20" font-family="Segoe UI" font-weight="700">Run Fraud Prediction</text>
  <rect x="1130" y="420" width="440" height="420" rx="24" fill="#FFFDF8" stroke="#E7DDCF"/>
  <text x="1160" y="464" fill="#1E2430" font-size="28" font-family="Segoe UI" font-weight="700">Prediction Result</text>
  <text x="1160" y="518" fill="#667085" font-size="16" font-family="Segoe UI">RISK SCORE</text>
  <text x="1160" y="578" fill="#23395B" font-size="54" font-family="Segoe UI" font-weight="700">91</text>
  <text x="1160" y="634" fill="#667085" font-size="16" font-family="Segoe UI">LABEL</text>
  <text x="1160" y="666" fill="#1E2430" font-size="26" font-family="Segoe UI">high</text>
  <text x="1160" y="718" fill="#667085" font-size="16" font-family="Segoe UI">TRIGGERED SIGNALS</text>
  <text x="1160" y="754" fill="#1E2430" font-size="18" font-family="Segoe UI">• country mismatch</text>
  <text x="1160" y="786" fill="#1E2430" font-size="18" font-family="Segoe UI">• device change</text>
  <text x="1160" y="818" fill="#1E2430" font-size="18" font-family="Segoe UI">• high amount</text>
</svg>
